<mxfile host="Electron" modified="2024-05-16T07:29:31.190Z" agent="Mozilla/5.0 (Windows NT 10.0; Win64; x64) AppleWebKit/537.36 (KHTML, like Gecko) draw.io/23.1.5 Chrome/120.0.6099.109 Electron/28.1.0 Safari/537.36" etag="RBO6g79cnOfpRWOAZTPY" version="23.1.5" type="device">
  <diagram name="Strona-1" id="N-g6R4FaqpWk_qaJ9Zau">
    <mxGraphModel dx="683" dy="456" grid="1" gridSize="10" guides="1" tooltips="1" connect="1" arrows="1" fold="1" page="1" pageScale="1" pageWidth="570" pageHeight="350" math="0" shadow="0">
      <root>
        <mxCell id="0" />
        <mxCell id="1" parent="0" />
        <mxCell id="QXbhTZh7FSRHMu3yAL8Z-152" value="" style="rounded=0;whiteSpace=wrap;html=1;fillColor=#a20025;fontColor=#ffffff;strokeColor=#6F0000;" parent="1" vertex="1">
          <mxGeometry x="150" y="30" width="260" height="280" as="geometry" />
        </mxCell>
        <mxCell id="QXbhTZh7FSRHMu3yAL8Z-137" value="" style="endArrow=classic;html=1;rounded=0;" parent="1" edge="1">
          <mxGeometry width="50" height="50" relative="1" as="geometry">
            <mxPoint x="40" y="170" as="sourcePoint" />
            <mxPoint x="560" y="170" as="targetPoint" />
          </mxGeometry>
        </mxCell>
        <mxCell id="QXbhTZh7FSRHMu3yAL8Z-138" value="" style="endArrow=none;html=1;rounded=0;" parent="1" source="QXbhTZh7FSRHMu3yAL8Z-141" edge="1">
          <mxGeometry width="50" height="50" relative="1" as="geometry">
            <mxPoint x="50" y="170" as="sourcePoint" />
            <mxPoint x="540" y="170" as="targetPoint" />
            <Array as="points">
              <mxPoint x="210" y="70" />
              <mxPoint x="220" y="170" />
              <mxPoint x="230" y="320" />
              <mxPoint x="240" y="170" />
              <mxPoint x="250" y="30" />
              <mxPoint x="260" y="170" />
              <mxPoint x="270" y="300" />
              <mxPoint x="280" y="170" />
              <mxPoint x="290" y="70" />
              <mxPoint x="300" y="170" />
              <mxPoint x="310" y="310" />
              <mxPoint x="320" y="170" />
              <mxPoint x="330" y="100" />
              <mxPoint x="340" y="170" />
              <mxPoint x="350" y="260" />
              <mxPoint x="360" y="170" />
              <mxPoint x="370" y="130" />
              <mxPoint x="380" y="170" />
              <mxPoint x="390" y="210" />
              <mxPoint x="400" y="170" />
              <mxPoint x="410" y="150" />
              <mxPoint x="420" y="170" />
              <mxPoint x="480" y="190" />
            </Array>
          </mxGeometry>
        </mxCell>
        <mxCell id="QXbhTZh7FSRHMu3yAL8Z-139" value="&lt;font style=&quot;font-size: 18px;&quot;&gt;+ próg&lt;/font&gt;" style="endArrow=none;html=1;rounded=0;" parent="1" edge="1">
          <mxGeometry x="0.88" y="20" width="50" height="50" relative="1" as="geometry">
            <mxPoint x="40" y="90" as="sourcePoint" />
            <mxPoint x="540" y="90" as="targetPoint" />
            <mxPoint as="offset" />
          </mxGeometry>
        </mxCell>
        <mxCell id="QXbhTZh7FSRHMu3yAL8Z-140" value="&lt;font style=&quot;font-size: 18px;&quot;&gt;- próg&lt;/font&gt;" style="endArrow=none;html=1;rounded=0;" parent="1" edge="1">
          <mxGeometry x="0.912" y="20" width="50" height="50" relative="1" as="geometry">
            <mxPoint x="42" y="250" as="sourcePoint" />
            <mxPoint x="542" y="250" as="targetPoint" />
            <mxPoint as="offset" />
          </mxGeometry>
        </mxCell>
        <mxCell id="QXbhTZh7FSRHMu3yAL8Z-142" value="" style="endArrow=none;html=1;rounded=0;" parent="1" target="QXbhTZh7FSRHMu3yAL8Z-141" edge="1">
          <mxGeometry width="50" height="50" relative="1" as="geometry">
            <mxPoint x="50" y="170" as="sourcePoint" />
            <mxPoint x="540" y="170" as="targetPoint" />
            <Array as="points">
              <mxPoint x="60" y="200" />
              <mxPoint x="80" y="170" />
              <mxPoint x="90" y="160" />
              <mxPoint x="100" y="170" />
              <mxPoint x="110" y="180" />
              <mxPoint x="120" y="170" />
              <mxPoint x="130" y="150" />
              <mxPoint x="140" y="170" />
              <mxPoint x="150" y="240" />
              <mxPoint x="160" y="170" />
              <mxPoint x="170" y="120" />
              <mxPoint x="180" y="170" />
              <mxPoint x="190" y="300" />
              <mxPoint x="200" y="170" />
            </Array>
          </mxGeometry>
        </mxCell>
        <mxCell id="QXbhTZh7FSRHMu3yAL8Z-141" value="" style="ellipse;whiteSpace=wrap;html=1;fillColor=#1ba1e2;fontColor=#ffffff;strokeColor=#006EAF;" parent="1" vertex="1">
          <mxGeometry x="200" y="60" width="20" height="20" as="geometry" />
        </mxCell>
        <mxCell id="QXbhTZh7FSRHMu3yAL8Z-145" value="" style="ellipse;whiteSpace=wrap;html=1;aspect=fixed;fillColor=#1ba1e2;fontColor=#ffffff;strokeColor=#006EAF;" parent="1" vertex="1">
          <mxGeometry x="340" y="260" width="20" height="20" as="geometry" />
        </mxCell>
        <mxCell id="QXbhTZh7FSRHMu3yAL8Z-146" value="" style="endArrow=none;html=1;rounded=0;fillColor=#1ba1e2;strokeColor=#006EAF;dashed=1;strokeWidth=2;" parent="1" edge="1">
          <mxGeometry width="50" height="50" relative="1" as="geometry">
            <mxPoint x="209.71" y="337" as="sourcePoint" />
            <mxPoint x="209.71" y="17" as="targetPoint" />
          </mxGeometry>
        </mxCell>
        <mxCell id="QXbhTZh7FSRHMu3yAL8Z-147" value="" style="endArrow=none;html=1;rounded=0;fillColor=#1ba1e2;strokeColor=#006EAF;dashed=1;strokeWidth=2;" parent="1" edge="1">
          <mxGeometry width="50" height="50" relative="1" as="geometry">
            <mxPoint x="349.71000000000004" y="337" as="sourcePoint" />
            <mxPoint x="349.71000000000004" y="17" as="targetPoint" />
          </mxGeometry>
        </mxCell>
        <mxCell id="QXbhTZh7FSRHMu3yAL8Z-148" value="&lt;font style=&quot;font-size: 18px;&quot;&gt;margines&lt;/font&gt;" style="endArrow=classic;startArrow=classic;html=1;rounded=0;" parent="1" edge="1">
          <mxGeometry x="-0.6667" y="-20" width="50" height="50" relative="1" as="geometry">
            <mxPoint x="150" y="310" as="sourcePoint" />
            <mxPoint x="210" y="310" as="targetPoint" />
            <mxPoint as="offset" />
          </mxGeometry>
        </mxCell>
        <mxCell id="QXbhTZh7FSRHMu3yAL8Z-149" value="&lt;font style=&quot;font-size: 18px;&quot;&gt;margines&lt;/font&gt;" style="endArrow=classic;startArrow=classic;html=1;rounded=0;" parent="1" edge="1">
          <mxGeometry x="0.6667" y="-20" width="50" height="50" relative="1" as="geometry">
            <mxPoint x="350" y="310" as="sourcePoint" />
            <mxPoint x="410" y="310" as="targetPoint" />
            <mxPoint as="offset" />
          </mxGeometry>
        </mxCell>
        <mxCell id="QXbhTZh7FSRHMu3yAL8Z-153" value="&lt;i style=&quot;&quot;&gt;&lt;font style=&quot;font-size: 18px;&quot;&gt;Wybrany fragment&lt;/font&gt;&lt;/i&gt;" style="text;html=1;align=center;verticalAlign=middle;whiteSpace=wrap;rounded=0;" parent="1" vertex="1">
          <mxGeometry x="205" width="150" height="30" as="geometry" />
        </mxCell>
      </root>
    </mxGraphModel>
  </diagram>
</mxfile>
